<?xml version="1.0" standalone="no"?>
<!DOCTYPE svg PUBLIC "-//W3C//DTD SVG 20010904//EN"
 "http://www.w3.org/TR/2001/REC-SVG-20010904/DTD/svg10.dtd">
<svg version="1.0" xmlns="http://www.w3.org/2000/svg"
 width="667.000000pt" height="667.000000pt" viewBox="0 0 667.000000 667.000000"
 preserveAspectRatio="xMidYMid meet">
<metadata>
Created by potrace 1.14, written by Peter Selinger 2001-2017
</metadata>
<g transform="translate(0.000000,667.000000) scale(0.100000,-0.100000)"
fill="#000000" stroke="none">
<path d="M3247 6654 c-1 -1 -42 -5 -92 -9 -49 -4 -93 -8 -96 -10 -3 -2 -28 -7
-55 -10 -51 -6 -89 -12 -89 -15 0 -1 -9 -3 -20 -5 -11 -2 -31 -6 -45 -8 -23
-4 -102 -29 -140 -44 -20 -8 -42 -14 -57 -15 -7 -1 -13 -5 -13 -10 0 -5 -4 -7
-9 -3 -5 3 -12 1 -16 -5 -4 -6 -11 -8 -16 -5 -5 4 -9 1 -9 -5 0 -6 -4 -9 -9
-5 -5 3 -12 1 -16 -5 -3 -5 -15 -10 -25 -10 -10 0 -20 -5 -22 -11 -2 -5 -10
-11 -18 -13 -8 -1 -35 -13 -60 -26 -25 -14 -57 -30 -71 -38 -15 -7 -36 -22
-47 -33 -12 -10 -26 -19 -31 -19 -5 0 -16 -6 -23 -13 -7 -7 -29 -24 -48 -37
-19 -13 -37 -27 -40 -30 -3 -3 -20 -18 -38 -33 -19 -15 -31 -27 -27 -27 4 0
-8 -12 -27 -27 -18 -16 -34 -31 -36 -35 -2 -4 -21 -25 -43 -47 -21 -23 -37
-41 -34 -41 3 0 -3 -10 -15 -22 -61 -66 -142 -236 -183 -382 l-22 -81 -1
-2233 c-2 -1434 1 -2232 7 -2232 6 0 7 -5 4 -10 -9 -14 19 -131 49 -208 14
-34 25 -66 26 -70 3 -18 81 -150 102 -172 13 -13 22 -27 21 -30 -4 -13 191
-220 208 -220 4 0 19 -10 32 -23 38 -36 67 -57 77 -57 6 0 10 -4 10 -10 0 -5
6 -10 14 -10 8 0 16 -3 18 -7 10 -23 253 -141 373 -181 101 -34 176 -53 315
-79 100 -18 461 -25 565 -11 97 13 301 57 360 78 33 12 67 23 76 25 10 2 52
20 95 41 44 20 85 38 93 40 8 1 17 8 21 14 4 7 9 10 12 8 6 -4 133 71 157 94
11 10 24 18 28 18 4 0 22 13 38 28 17 16 52 45 78 65 27 20 46 37 43 37 -4 0
15 20 41 45 25 25 44 45 41 45 -3 0 9 17 28 37 19 20 36 45 40 55 3 10 10 18
15 18 5 0 9 6 9 14 0 8 6 21 13 28 18 19 87 161 87 179 0 9 3 19 8 23 4 4 7
11 8 14 0 4 4 14 7 22 4 8 9 26 11 40 3 14 5 25 6 25 12 0 15 422 15 2310 0
1227 -2 2248 -4 2270 -3 22 -22 90 -44 150 -21 61 -41 118 -44 128 -3 9 -9 17
-14 17 -5 0 -9 5 -9 11 0 13 -99 163 -111 167 -5 2 -9 10 -9 18 0 8 -7 14 -16
14 -8 0 -13 4 -10 8 3 5 -4 15 -15 22 -10 8 -19 20 -19 27 0 7 -5 13 -11 13
-6 0 -27 17 -45 37 -19 20 -34 34 -34 31 0 -4 -13 6 -29 20 -46 44 -85 77 -96
81 -5 3 -33 19 -61 37 -94 60 -289 153 -334 159 -3 0 -12 5 -20 10 -8 6 -35
15 -60 22 -127 33 -211 53 -256 59 -27 3 -51 8 -54 9 -14 9 -355 26 -363 19z"/>
</g>
</svg>
